<svg width="48" height="48" viewBox="0 0 48 48" fill="none" xmlns="http://www.w3.org/2000/svg">
<rect width="48" height="48" rx="24" fill="#33464E"/>
<path d="M23.9999 23.8032C26.0012 23.8032 27.6237 21.8325 27.6237 19.4016C27.6237 16.9706 27.091 15 23.9999 15C20.9088 15 20.376 16.9706 20.376 19.4016C20.376 21.8325 21.9985 23.8032 23.9999 23.8032Z" fill="white"/>
<path d="M17.155 30.5239C17.1544 30.3757 17.1538 30.4822 17.155 30.5239V30.5239Z" fill="white"/>
<path d="M30.8438 30.6395C30.8457 30.5989 30.8444 30.358 30.8438 30.6395V30.6395Z" fill="white"/>
<path d="M30.8367 30.3463C30.7695 26.1116 30.2165 24.9049 25.9843 24.1411C25.9843 24.1411 25.3885 24.9003 24 24.9003C22.6114 24.9003 22.0155 24.1411 22.0155 24.1411C17.8295 24.8966 17.2428 26.0854 17.1657 30.2088C17.1593 30.5455 17.1564 30.5632 17.1553 30.5241C17.1555 30.5973 17.1558 30.7328 17.1558 30.969C17.1558 30.969 18.1634 33.0002 24 33.0002C29.8364 33.0002 30.8441 30.969 30.8441 30.969C30.8441 30.8172 30.8442 30.7117 30.8443 30.6399C30.8432 30.6641 30.8409 30.6172 30.8367 30.3463Z" fill="white"/>
</svg>
