<svg version="1.2" baseProfile="tiny-ps" xmlns="http://www.w3.org/2000/svg" viewBox="0 0 48 48" width="48" height="48">
	<title>rectangle-svg-svg</title>
	<style>
		tspan { white-space:pre }
		.shp0 { fill: #33464e } 
		.shp1 { fill: #ffffff } 
	</style>
	<path id="Layer" class="shp0" d="M24 0L24 0C37.27 0 48 10.73 48 24L48 24C48 37.27 37.27 48 24 48L24 48C10.73 48 0 37.27 0 24L0 24C0 10.73 10.73 0 24 0Z" />
	<path id="Layer" class="shp1" d="M18.89 25.44C19.45 25.44 20.01 25.4 20.53 25.33L20.53 19.63C20.01 19.56 19.45 19.52 18.89 19.52C15.64 19.52 13 20.72 13 22.19L13 22.77C13 24.24 15.64 25.44 18.89 25.44Z" />
	<path id="Layer" class="shp1" d="M18.89 28.42C19.45 28.42 20.01 28.38 20.53 28.31L20.53 26.64C20.01 26.71 19.46 26.75 18.89 26.75C16.05 26.75 13.68 25.84 13.12 24.62C13.04 24.8 13 24.98 13 25.17L13 25.75C13 27.22 15.64 28.42 18.89 28.42Z" />
	<path id="Layer" class="shp1" d="M20.53 29.75L20.53 29.62C20.01 29.69 19.46 29.73 18.89 29.73C16.05 29.73 13.68 28.82 13.12 27.6C13.04 27.78 13 27.96 13 28.15L13 28.73C13 30.2 15.64 31.4 18.89 31.4C19.54 31.4 20.16 31.35 20.75 31.26C20.6 30.97 20.53 30.65 20.53 30.33L20.53 29.75Z" />
	<path id="Layer" class="shp1" d="M27.37 15C24.12 15 21.49 16.2 21.49 17.67L21.49 18.25C21.49 19.72 24.12 20.92 27.37 20.92C30.62 20.92 33.26 19.72 33.26 18.25L33.26 17.67C33.26 16.2 30.62 15 27.37 15Z" />
	<path id="Layer" class="shp1" d="M27.37 22.23C24.53 22.23 22.17 21.32 21.61 20.1C21.53 20.28 21.49 20.46 21.49 20.65L21.49 21.23C21.49 22.7 24.12 23.9 27.37 23.9C30.62 23.9 33.26 22.7 33.26 21.23L33.26 20.65C33.26 20.46 33.21 20.28 33.13 20.1C32.58 21.32 30.21 22.23 27.37 22.23Z" />
	<path id="Layer" class="shp1" d="M27.37 25.21C24.53 25.21 22.17 24.3 21.61 23.08C21.53 23.26 21.49 23.44 21.49 23.63L21.49 24.21C21.49 25.68 24.12 26.88 27.37 26.88C30.62 26.88 33.26 25.68 33.26 24.21L33.26 23.63C33.26 23.44 33.21 23.26 33.13 23.08C32.58 24.3 30.21 25.21 27.37 25.21Z" />
	<path id="Layer" class="shp1" d="M27.37 28.35C24.53 28.35 22.17 27.44 21.61 26.22C21.53 26.4 21.49 26.58 21.49 26.77L21.49 27.35C21.49 28.82 24.12 30.02 27.37 30.02C30.62 30.02 33.26 28.82 33.26 27.35L33.26 26.77C33.26 26.58 33.21 26.4 33.13 26.22C32.58 27.44 30.21 28.35 27.37 28.35Z" />
	<path id="Layer" class="shp1" d="M27.37 31.33C24.53 31.33 22.17 30.42 21.61 29.2C21.53 29.38 21.49 29.56 21.49 29.75L21.49 30.33C21.49 31.8 24.12 33 27.37 33C30.62 33 33.26 31.8 33.26 30.33L33.26 29.75C33.26 29.56 33.21 29.38 33.13 29.2C32.58 30.42 30.21 31.33 27.37 31.33Z" />
</svg>