<svg width="20" height="19" viewBox="0 0 20 19" fill="none" xmlns="http://www.w3.org/2000/svg">
<g clip-path="url(#clip0)">
<path d="M13.9286 3.27379H2.79766C1.71281 3.27379 0.833374 4.15323 0.833374 5.23808V16.369C0.833374 17.4539 1.71281 18.3333 2.79766 18.3333H13.9286C15.0134 18.3333 15.8929 17.4539 15.8929 16.369V5.23808C15.8929 4.15323 15.0134 3.27379 13.9286 3.27379ZM14.5834 16.3691C14.5834 16.7307 14.2902 17.0238 13.9286 17.0238H2.79766C2.43603 17.0238 2.14288 16.7307 2.14288 16.3691V5.23808C2.14288 4.87645 2.43603 4.58331 2.79766 4.58331H13.9286C14.2902 4.58331 14.5834 4.87645 14.5834 5.23808V16.3691Z" fill="#62737E"/>
<path d="M17.2024 0H5.41674C4.33189 0 3.45245 0.879439 3.45245 1.96428C3.45245 2.32591 3.7456 2.61906 4.10723 2.61906C4.46886 2.61906 4.76196 2.32591 4.76196 1.96428C4.76196 1.60266 5.05511 1.30951 5.41674 1.30951H17.2024C17.5641 1.30951 17.8572 1.60266 17.8572 1.96428V13.75C17.8572 14.1116 17.5641 14.4048 17.2024 14.4048C16.8408 14.4048 16.5477 14.6979 16.5477 15.0595C16.5477 15.4212 16.8408 15.7143 17.2024 15.7143C18.2873 15.7143 19.1667 14.8349 19.1667 13.75V1.96428C19.1667 0.879439 18.2873 0 17.2024 0Z" fill="#62737E"/>
</g>
<defs>
<clipPath id="clip0">
<rect width="18.3333" height="18.3333" fill="white" transform="translate(0.833374)"/>
</clipPath>
</defs>
</svg>
