<svg width="22" height="17" viewBox="0 0 22 17" fill="none" xmlns="http://www.w3.org/2000/svg">
<g clip-path="url(#clip0)">
<path d="M20.2959 9.19386C19.8648 9.19386 19.5153 9.54335 19.5153 9.97449V14.6582C19.5153 15.0893 19.1658 15.4388 18.7346 15.4388H3.12246C2.69132 15.4388 2.34183 15.0893 2.34183 14.6582V9.97449C2.34183 9.54335 1.99234 9.19386 1.56121 9.19386C1.13007 9.19386 0.780579 9.54335 0.780579 9.97449V14.6582C0.780579 15.9515 1.82905 17 3.12241 17H18.7347C20.028 17 21.0765 15.9515 21.0765 14.6582V9.97449C21.0765 9.54335 20.727 9.19386 20.2959 9.19386Z" fill="#62737E"/>
<path d="M15.3659 8.64198C15.0634 8.34985 14.5838 8.34985 14.2813 8.64198L11.7092 11.2125V1.3878C11.7092 0.956669 11.3597 0.607178 10.9286 0.607178C10.4974 0.607178 10.1479 0.956669 10.1479 1.3878V11.2126L7.57737 8.64198C7.26726 8.34248 6.77309 8.35108 6.47359 8.66115C6.18141 8.96366 6.18141 9.44323 6.47359 9.74575L10.3766 13.6488C10.6811 13.954 11.1754 13.9547 11.4806 13.6502L11.482 13.6488L15.3851 9.74575C15.6846 9.43564 15.676 8.94148 15.3659 8.64198Z" fill="#62737E"/>
</g>
<defs>
<clipPath id="clip0">
<rect width="21.8571" height="17" fill="white"/>
</clipPath>
</defs>
</svg>
