<svg width="130" height="130" viewBox="0 0 130 130" fill="none" xmlns="http://www.w3.org/2000/svg">
<circle cx="65" cy="65" r="65" fill="#1B282D"/>
<g clip-path="url(#clip0)">
<path d="M86.1998 47.04C85.7473 47.04 85.2973 46.88 84.9373 46.55C79.4198 41.52 72.3398 38.75 64.9998 38.75C57.6598 38.75 50.5798 41.52 45.0623 46.5525C44.2948 47.25 43.1098 47.1925 42.4123 46.43C41.7148 45.665 41.7698 44.4775 42.5348 43.78C48.7473 38.1175 56.7248 35 64.9998 35C73.2748 35 81.2523 38.1175 87.4648 43.78C88.2298 44.4775 88.2848 45.6625 87.5873 46.43C87.2173 46.835 86.7098 47.04 86.1998 47.04V47.04Z" fill="#DC0D16"/>
<path d="M89.3749 59.2925C88.7724 59.2925 88.1774 59.0025 87.8174 58.4625C82.6124 50.7125 74.0824 46.085 64.9999 46.085C55.9174 46.085 47.3874 50.7125 42.1824 58.4625C41.6049 59.325 40.4374 59.5525 39.5799 58.975C38.7199 58.3975 38.4899 57.2325 39.0674 56.3725C44.9699 47.585 54.6649 42.3375 64.9999 42.3375C75.3349 42.3375 85.0299 47.585 90.9324 56.375C91.5099 57.235 91.2824 58.4 90.4199 58.9775C90.0999 59.19 89.7374 59.2925 89.3749 59.2925Z" fill="#DC0D16"/>
<path d="M59.0775 95C58.595 95 58.1125 94.815 57.745 94.445C57.335 94.0325 47.7275 84.225 47.7275 74.7825C47.7275 64.9825 55.475 57.01 65 57.01C74.525 57.01 82.2725 64.9825 82.2725 74.7825C82.2725 75.8175 81.4325 76.6575 80.3975 76.6575C79.3625 76.6575 78.5225 75.8175 78.5225 74.7825C78.5225 67.05 72.4575 60.76 65 60.76C57.5425 60.76 51.4775 67.05 51.4775 74.7825C51.4775 82.7 60.32 91.715 60.41 91.805C61.14 92.54 61.135 93.7275 60.3975 94.4575C60.0325 94.82 59.555 95 59.0775 95V95Z" fill="#DC0D16"/>
<path d="M70.9223 95C66.4123 95 55.9573 86.42 54.9448 76.865C54.5873 73.4875 55.6623 70.0325 57.8173 67.6225C59.6923 65.5275 62.2248 64.365 64.9473 64.35H64.9998C67.6548 64.35 70.1648 65.3925 72.0748 67.29C74.0698 69.2725 75.1673 71.935 75.1673 74.785V76.0075C75.1673 79.02 77.5123 81.47 80.3973 81.47C83.2823 81.47 85.6298 79.02 85.6298 76.0075V75.58C85.6298 63.905 77.1723 54.1925 66.3748 53.4725C60.7473 53.09 55.3448 55.035 51.1773 58.93C46.8523 62.975 44.3723 68.755 44.3723 74.785C44.3723 79.745 46.0523 84.5775 49.1023 88.3925C49.7473 89.2025 49.6173 90.38 48.8073 91.0275C47.9998 91.675 46.8198 91.545 46.1723 90.7325C42.5948 86.255 40.6223 80.59 40.6223 74.7825C40.6223 67.7175 43.5373 60.94 48.6148 56.19C53.5473 51.575 59.9448 49.2775 66.6223 49.7275C79.3823 50.58 89.3798 61.935 89.3798 75.5775V76.005C89.3798 81.085 85.3498 85.2175 80.3973 85.2175C75.4448 85.2175 71.4173 81.085 71.4173 76.005V74.7825C71.4173 72.9375 70.7123 71.2225 69.4323 69.9475C68.2323 68.7525 66.6598 68.0975 65.0023 68.0975C64.9898 68.0975 64.9798 68.0975 64.9673 68.0975C62.8548 68.1075 61.4323 69.205 60.6123 70.1225C59.1498 71.755 58.4248 74.13 58.6723 76.47C59.4998 84.265 68.4573 91.2525 70.9223 91.2525C71.9573 91.2525 72.7973 92.0925 72.7973 93.1275C72.7973 94.1625 71.9573 95 70.9223 95V95Z" fill="#DC0D16"/>
<path d="M77.88 91.3326C71.17 91.3326 62.9775 83.1326 62.9775 73.5601C62.9775 72.5251 63.8175 71.6851 64.8525 71.6851C65.8875 71.6851 66.7275 72.5251 66.7275 73.5601C66.7275 80.9801 72.965 87.5826 77.88 87.5826C78.915 87.5826 79.755 88.4226 79.755 89.4576C79.755 90.4926 78.915 91.3326 77.88 91.3326Z" fill="#DC0D16"/>
</g>
<defs>
<clipPath id="clip0">
<rect width="60" height="60" fill="white" transform="translate(35 35)"/>
</clipPath>
</defs>
</svg>
