<svg width="18" height="18" viewBox="0 0 18 18"  xmlns="http://www.w3.org/2000/svg">
<path d="M8.24838 11.8914C8.15755 11.8616 7.5876 11.2764 7.94399 10.176H7.93914C8.86826 9.20458 9.66356 7.64171 9.66356 6.10172C9.66356 3.73593 8.02789 2.49548 6.2265 2.49548C4.42373 2.49548 2.86017 3.73593 2.86017 6.10172C2.86017 7.64726 3.58891 9.21636 4.52288 10.1871C4.8869 11.1564 4.23582 11.8401 4.09923 11.8914C2.21325 12.5834 0 13.8467 0 15.0927C0 15.429 0 15.2251 0 15.56C0 17.2581 3.24291 17.6443 6.24453 17.6443C9.24961 17.6443 12.4523 17.2581 12.4523 15.56C12.4523 15.2258 12.4523 15.4297 12.4523 15.0927C12.4523 13.8086 10.228 12.5563 8.24838 11.8914Z" />
<path d="M14.0471 8.77193C13.9625 8.7435 13.4258 8.61245 13.7607 7.57725H13.7565C14.6302 6.66477 15.2327 5.19343 15.2327 3.74774C15.2327 1.5227 13.8391 0.356445 12.1458 0.356445C10.8992 0.356445 9.82511 0.992963 9.34322 2.2133C10.3549 3.04882 11.051 4.34959 11.051 6.10105C11.051 7.97108 10.1746 9.67748 9.25793 10.7786C10.7182 11.3312 13.0001 12.4427 13.6532 14.1414C15.9539 14.0138 18 13.5361 18 12.2201C18 11.906 18 12.0974 18 11.7812C17.9993 10.5747 15.9081 9.39666 14.0471 8.77193Z" />
</svg>
