<svg width="22" height="22" viewBox="0 0 22 22" fill="none" xmlns="http://www.w3.org/2000/svg">
<path d="M21.8498 10.4616C20.5144 8.42255 18.9106 6.64261 17.0979 5.18788L20.1983 1.57441C20.5104 1.22307 20.519 0.64337 20.2176 0.279581C19.9161 -0.0842079 19.4187 -0.0942954 19.1066 0.257045C19.1001 0.264396 19.0936 0.271908 19.0873 0.279581L15.7001 4.22363C14.2584 3.29881 12.6454 2.796 11 2.75844C5.02862 2.75844 0.346605 10.1466 0.150163 10.4615C-0.0500543 10.7826 -0.0500543 11.2174 0.150163 11.5384C1.48553 13.5775 3.08934 15.3574 4.90211 16.8121L1.80171 20.4256C1.48958 20.7769 1.48092 21.3566 1.78238 21.7204C2.08383 22.0842 2.58122 22.0943 2.89335 21.743C2.89989 21.7356 2.90634 21.7281 2.91269 21.7204L6.29985 17.7764C7.74161 18.7012 9.35458 19.204 11 19.2416C16.9713 19.2416 21.6534 11.8534 21.8498 11.5384C22.0501 11.2174 22.0501 10.7826 21.8498 10.4616ZM6.04453 15.4834C4.44394 14.241 3.00923 12.7303 1.7868 11C2.94335 9.36727 6.6943 4.58989 11 4.58989C12.225 4.61875 13.4294 4.96274 14.527 5.59717L13.163 7.1869C11.3584 5.7905 8.92408 6.36355 7.72596 8.46687C6.85318 9.99902 6.85318 11.9916 7.72596 13.5237L6.04453 15.4834ZM13.1214 9.82329C13.2752 10.1898 13.3558 10.5921 13.3571 11C13.3571 12.5173 12.3018 13.7472 11 13.7472C10.65 13.7457 10.3048 13.6517 9.99036 13.4725L13.1214 9.82329ZM8.8786 12.1767C8.72483 11.8102 8.64422 11.4079 8.64289 11C8.64289 9.48274 9.6982 8.25278 11 8.25278C11.35 8.25433 11.6952 8.34829 12.0097 8.5275L8.8786 12.1767ZM11 17.4101C9.77499 17.3812 8.57065 17.0373 7.47298 16.4028L8.83698 14.8131C10.6417 16.2095 13.0759 15.6365 14.2741 13.5331C15.1468 12.001 15.1468 10.0084 14.2741 8.47626L15.9555 6.51657C17.5561 7.75903 18.9908 9.26978 20.2132 11C19.0566 12.6328 15.3057 17.4101 11 17.4101Z" fill="#62737E"/>
</svg>
