<svg width="18" height="18" viewBox="0 0 18 18"  xmlns="http://www.w3.org/2000/svg">
<path d="M17.8352 8.31956L10.8398 1.32375C9.82516 0.309482 8.1749 0.309482 7.16029 1.32375L0.164827 8.31956C-0.0549017 8.53929 -0.0549017 8.89543 0.164827 9.11516C0.384204 9.33488 0.740692 9.33488 0.960069 9.11516L1.40621 8.66902V15.8199C1.40621 16.713 2.13026 17.4371 3.02341 17.4371H5.83594C6.03011 17.4371 6.1875 17.2797 6.1875 17.0855V11.8823C6.1875 10.9115 6.97452 10.1245 7.94533 10.1245H10.0547C11.0255 10.1245 11.8126 10.9115 11.8126 11.8823V17.0855C11.8126 17.2797 11.97 17.4371 12.1641 17.4371H14.9767C15.8698 17.4371 16.5939 16.713 16.5939 15.8199V8.66902L17.04 9.11516C17.1497 9.22484 17.2938 9.28004 17.4376 9.28004C17.5814 9.28004 17.7255 9.22484 17.8352 9.11516C18.055 8.89543 18.055 8.53929 17.8352 8.31956Z" />
</svg>
