<svg width="41" height="41" viewBox="0 0 41 41" fill="none" xmlns="http://www.w3.org/2000/svg">
<rect width="41" height="41" rx="20.5" fill="#18BF65"/>
<path d="M22.6483 17.7212C22.4703 17.5431 22.1809 17.5431 22.0028 17.7212L20.9565 18.7675V8.91304C20.9565 8.66104 20.7519 8.4565 20.4999 8.4565C20.2479 8.4565 20.0434 8.66104 20.0434 8.91304V19.8696C20.0434 20.054 20.1548 20.2211 20.3255 20.2914C20.3821 20.3151 20.4415 20.3261 20.4999 20.3261C20.6186 20.3261 20.7355 20.2795 20.8222 20.1928L22.6483 18.3667C22.8264 18.1887 22.8264 17.8992 22.6483 17.7212Z" fill="white"/>
<path d="M20.8224 19.5473L18.9963 17.7212C18.8182 17.5431 18.5288 17.5431 18.3507 17.7212C18.1727 17.8992 18.1727 18.1887 18.3507 18.3667L20.1768 20.1928C20.2663 20.2813 20.3832 20.3261 20.5 20.3261C20.6169 20.3261 20.7338 20.2814 20.8224 20.1928C21.0004 20.0147 21.0004 19.7253 20.8224 19.5473Z" fill="white"/>
<path d="M30.4631 18.4699L27.1716 13.5321C26.5772 12.641 25.5829 12.1087 24.5128 12.1087H22.3261C22.0741 12.1087 21.8695 12.3132 21.8695 12.5652C21.8695 12.8172 22.0741 13.0218 22.3261 13.0218H24.5128C25.277 13.0218 25.9874 13.4016 26.4119 14.038L29.7034 18.9757C29.9545 19.3519 30.0869 19.7902 30.0869 20.2421V26.2609C30.0869 27.016 29.4725 27.6304 28.7174 27.6304H12.2826C11.5275 27.6304 10.913 27.016 10.913 26.2609V20.3097C10.913 19.8212 11.0655 19.3546 11.3677 18.941L14.3205 14.4598C14.914 13.5586 15.9119 13.0217 16.9893 13.0217H18.6739C18.9259 13.0217 19.1304 12.8172 19.1304 12.5652C19.1304 12.3132 18.9259 12.1087 18.6739 12.1087H16.9894C15.6034 12.1087 14.3205 12.7999 13.5581 13.9576L10.6181 18.4206C10.2137 18.973 10 19.6258 10 20.3097V26.2609C10 27.519 11.0244 28.5435 12.2826 28.5435H28.7174C29.9755 28.5435 31 27.519 31 26.2609V20.2421C31 19.6093 30.8146 18.9967 30.4631 18.4699Z" fill="white"/>
<path d="M30.087 19.413H27.8044C26.5462 19.413 25.5218 20.4375 25.5218 21.6956C25.5218 22.4507 24.9073 23.0652 24.1522 23.0652H16.8479C16.0928 23.0652 15.4783 22.4507 15.4783 21.6956C15.4783 20.4375 14.4539 19.413 13.1957 19.413H10.9131C10.6611 19.413 10.4565 19.6176 10.4565 19.8696C10.4565 20.1216 10.6611 20.3261 10.9131 20.3261H13.1957C13.9508 20.3261 14.5652 20.9405 14.5652 21.6956C14.5652 22.9538 15.5897 23.9782 16.8478 23.9782H24.1522C25.4104 23.9782 26.4348 22.9538 26.4348 21.6956C26.4348 20.9405 27.0493 20.3261 27.8044 20.3261H30.087C30.339 20.3261 30.5435 20.1215 30.5435 19.8695C30.5435 19.6175 30.339 19.413 30.087 19.413Z" fill="white"/>
</svg>
