<svg version="1.2" baseProfile="tiny-ps" xmlns="http://www.w3.org/2000/svg" viewBox="0 0 48 48" width="48" height="48">
	<title>rectangle-svg</title>
	<style>
		tspan { white-space:pre }
		.shp0 { fill: #33464e } 
		.shp1 { fill: #ffffff } 
	</style>
	<path id="Layer" class="shp0" d="M24 0L24 0C37.27 0 48 10.73 48 24L48 24C48 37.27 37.27 48 24 48L24 48C10.73 48 0 37.27 0 24L0 24C0 10.73 10.73 0 24 0Z" />
	<path id="Layer" class="shp1" d="M24 22.8C26 22.8 27.62 20.83 27.62 18.4C27.62 15.97 27.09 14 24 14C20.91 14 20.38 15.97 20.38 18.4C20.38 20.83 22 22.8 24 22.8Z" />
	<path id="Layer" class="shp1" d="M17.16 29.52C17.15 29.38 17.15 29.48 17.16 29.52L17.16 29.52Z" />
	<path id="Layer" class="shp1" d="M30.84 29.64C30.85 29.6 30.84 29.36 30.84 29.64L30.84 29.64Z" />
	<path id="Layer" class="shp1" d="M30.84 29.35C30.77 25.11 30.22 23.9 25.98 23.14C25.98 23.14 25.39 23.9 24 23.9C22.61 23.9 22.02 23.14 22.02 23.14C17.83 23.9 17.24 25.09 17.17 29.21C17.16 29.55 17.16 29.56 17.16 29.52C17.16 29.6 17.16 29.73 17.16 29.97C17.16 29.97 18.16 32 24 32C29.84 32 30.84 29.97 30.84 29.97C30.84 29.82 30.84 29.71 30.84 29.64C30.84 29.66 30.84 29.62 30.84 29.35Z" />
</svg>