<svg width="18" height="18" viewBox="0 0 18 18" fill="none" xmlns="http://www.w3.org/2000/svg">
<path d="M9.00038 8.80318C11.0017 8.80318 12.6242 6.83254 12.6242 4.40162C12.6242 1.97064 12.0915 0 9.00038 0C5.90926 0 5.37646 1.97064 5.37646 4.40162C5.37646 6.83254 6.99898 8.80318 9.00038 8.80318Z" fill="white"/>
<path d="M2.1555 15.5239C2.15488 15.3757 2.15426 15.4821 2.1555 15.5239V15.5239Z" fill="white"/>
<path d="M15.8442 15.6396C15.8462 15.599 15.8449 15.3581 15.8442 15.6396V15.6396Z" fill="white"/>
<path d="M15.8371 15.3461C15.77 11.1114 15.217 9.90472 10.9848 9.1409C10.9848 9.1409 10.389 9.90004 9.00044 9.90004C7.61187 9.90004 7.01602 9.1409 7.01602 9.1409C2.82999 9.89639 2.24329 11.0852 2.16615 15.2086C2.15982 15.5453 2.15689 15.5629 2.15576 15.5239C2.15602 15.5971 2.15633 15.7326 2.15633 15.9688C2.15633 15.9688 3.16392 18 9.00044 18C14.8369 18 15.8446 15.9688 15.8446 15.9688C15.8446 15.817 15.8447 15.7115 15.8448 15.6397C15.8437 15.6638 15.8414 15.617 15.8371 15.3461Z" fill="white"/>
</svg>
