<svg width="41" height="41" viewBox="0 0 41 41" fill="none" xmlns="http://www.w3.org/2000/svg">
<rect width="41" height="41" rx="20.5" fill="#DC0D16"/>
<path d="M22.6493 10.4159L20.8232 8.5898C20.6926 8.45922 20.4964 8.42087 20.3256 8.49119C20.1549 8.56151 20.0435 8.72859 20.0435 8.91301V19.8695C20.0435 20.1215 20.248 20.3261 20.5 20.3261C20.752 20.3261 20.9565 20.1215 20.9565 19.8695V10.0151L22.0038 11.0614C22.1818 11.2395 22.4713 11.2395 22.6493 11.0614C22.8273 10.8834 22.8273 10.5939 22.6493 10.4159Z" fill="white"/>
<path d="M20.8224 8.59075C20.6443 8.4127 20.3549 8.4127 20.1769 8.59075L18.3508 10.4168C18.1727 10.5949 18.1727 10.8843 18.3508 11.0624C18.4402 11.1509 18.5571 11.1957 18.674 11.1957C18.7909 11.1957 18.9077 11.151 18.9963 11.0624L20.8224 9.23628C21.0004 9.0582 21.0004 8.76879 20.8224 8.59075Z" fill="white"/>
<path d="M30.4631 18.4699L27.1716 13.5321C26.5772 12.641 25.5829 12.1087 24.5128 12.1087H22.3261C22.0741 12.1087 21.8695 12.3132 21.8695 12.5652C21.8695 12.8172 22.0741 13.0218 22.3261 13.0218H24.5128C25.277 13.0218 25.9874 13.4016 26.4119 14.038L29.7035 18.9757C29.9546 19.3519 30.0869 19.7902 30.0869 20.2421V26.2609C30.0869 27.016 29.4725 27.6304 28.7174 27.6304H12.2826C11.5275 27.6304 10.913 27.016 10.913 26.2609V20.3097C10.913 19.8212 11.0655 19.3546 11.3677 18.941L14.3205 14.4598C14.914 13.5586 15.9119 13.0217 16.9893 13.0217H18.6739C18.9259 13.0217 19.1304 12.8172 19.1304 12.5652C19.1304 12.3132 18.9259 12.1087 18.6739 12.1087H16.9894C15.6034 12.1087 14.3205 12.7999 13.5581 13.9576L10.6181 18.4206C10.2137 18.973 10 19.6258 10 20.3097V26.2609C10 27.519 11.0244 28.5435 12.2826 28.5435H28.7174C29.9755 28.5435 31 27.519 31 26.2609V20.2421C31 19.6093 30.8146 18.9967 30.4631 18.4699Z" fill="white"/>
<path d="M30.0869 19.413H27.8043C26.5462 19.413 25.5217 20.4375 25.5217 21.6956C25.5217 22.4507 24.9073 23.0652 24.1522 23.0652H16.8478C16.0927 23.0652 15.4782 22.4507 15.4782 21.6956C15.4782 20.4375 14.4538 19.413 13.1957 19.413H10.913C10.661 19.413 10.4565 19.6176 10.4565 19.8696C10.4565 20.1216 10.661 20.3261 10.913 20.3261H13.1956C13.9507 20.3261 14.5652 20.9405 14.5652 21.6956C14.5652 22.9538 15.5896 23.9782 16.8478 23.9782H24.1521C25.4103 23.9782 26.4348 22.9538 26.4348 21.6956C26.4348 20.9405 27.0492 20.3261 27.8043 20.3261H30.0869C30.3389 20.3261 30.5435 20.1215 30.5435 19.8695C30.5435 19.6175 30.3389 19.413 30.0869 19.413Z" fill="white"/>
</svg>
