<svg version="1.2" baseProfile="tiny-ps" xmlns="http://www.w3.org/2000/svg" viewBox="0 0 48 48" width="48" height="48">
	<title>rectangle-svg-svg</title>
	<defs>
		<clipPath clipPathUnits="userSpaceOnUse" id="cp1">
			<path d="M9 9L40 9L40 40L9 40L9 9Z" />
		</clipPath>
	</defs>
	<style>
		tspan { white-space:pre }
		.shp0 { fill: #33464e } 
		.shp1 { fill: #ffffff } 
	</style>
	<path id="Layer" class="shp0" d="M24 0L24 0C37.27 0 48 10.73 48 24L48 24C48 37.27 37.27 48 24 48L24 48C10.73 48 0 37.27 0 24L0 24C0 10.73 10.73 0 24 0Z" />
	<g id="Clip-Path" clip-path="url(#cp1)">
		<g id="Layer">
			<path id="Layer" fill-rule="evenodd" class="shp1" d="M40 21.61L40 27.39C40 29.5 38.28 31.22 36.17 31.22L12.83 31.22C10.72 31.22 9 29.5 9 27.39L9 21.61C9 19.5 10.72 17.78 12.83 17.78L36.17 17.78C38.28 17.78 40 19.5 40 21.61ZM38.18 21.61C38.18 20.5 37.28 19.6 36.17 19.6L12.83 19.6C11.72 19.6 10.82 20.5 10.82 21.61L10.82 27.39C10.82 28.5 11.72 29.4 12.83 29.4L36.17 29.4C37.28 29.4 38.18 28.5 38.18 27.39L38.18 21.61Z" />
			<path id="Layer" class="shp1" d="M18.04 23.55C17.93 23.41 17.8 23.34 17.64 23.34C17.59 23.34 17.53 23.35 17.48 23.37L16.36 23.75L16.4 22.65C16.39 22.48 16.34 22.35 16.23 22.27C16.13 22.18 16 22.14 15.85 22.14C15.69 22.14 15.55 22.18 15.45 22.27C15.35 22.36 15.29 22.49 15.28 22.65L15.34 23.73L14.21 23.37C14.16 23.35 14.1 23.34 14.05 23.34C13.88 23.34 13.74 23.4 13.63 23.52C13.51 23.64 13.45 23.77 13.45 23.92C13.45 24.24 13.57 24.42 13.82 24.47L14.92 24.78L14.22 25.78C14.13 25.88 14.09 26 14.09 26.12C14.09 26.29 14.17 26.42 14.32 26.52C14.47 26.63 14.62 26.68 14.77 26.68C14.94 26.68 15.06 26.61 15.14 26.49L15.85 25.41L16.53 26.48C16.61 26.61 16.75 26.68 16.93 26.68C17.09 26.68 17.24 26.62 17.38 26.51C17.51 26.4 17.58 26.27 17.58 26.1C17.58 25.97 17.55 25.87 17.49 25.79L16.75 24.72L17.83 24.47C18.08 24.42 18.2 24.26 18.2 24C18.2 23.84 18.14 23.68 18.04 23.55Z" />
			<path id="Layer" class="shp1" d="M24.32 23.55C24.21 23.41 24.08 23.34 23.93 23.34C23.87 23.34 23.82 23.35 23.77 23.37L22.64 23.75L22.68 22.65C22.67 22.48 22.62 22.35 22.51 22.27C22.41 22.18 22.28 22.14 22.13 22.14C21.97 22.14 21.84 22.18 21.73 22.27C21.63 22.36 21.57 22.49 21.57 22.65L21.62 23.73L20.49 23.37C20.44 23.35 20.39 23.34 20.33 23.34C20.16 23.34 20.02 23.4 19.91 23.52C19.79 23.64 19.74 23.77 19.74 23.92C19.74 24.24 19.86 24.42 20.1 24.47L21.2 24.78L20.5 25.78C20.42 25.88 20.37 26 20.37 26.12C20.37 26.29 20.45 26.42 20.6 26.52C20.75 26.63 20.9 26.68 21.05 26.68C21.22 26.68 21.34 26.61 21.42 26.49L22.13 25.41L22.81 26.48C22.89 26.61 23.03 26.68 23.21 26.68C23.38 26.68 23.52 26.62 23.66 26.51C23.79 26.4 23.86 26.27 23.86 26.1C23.86 25.97 23.83 25.87 23.78 25.79L23.03 24.72L24.12 24.47C24.36 24.42 24.48 24.26 24.48 24C24.48 23.84 24.43 23.68 24.32 23.55Z" />
			<path id="Layer" class="shp1" d="M30.6 23.55C30.5 23.41 30.36 23.34 30.21 23.34C30.15 23.34 30.1 23.35 30.05 23.37L28.92 23.75L28.96 22.65C28.96 22.48 28.9 22.35 28.8 22.27C28.69 22.18 28.56 22.14 28.41 22.14C28.25 22.14 28.12 22.18 28.02 22.27C27.91 22.36 27.86 22.49 27.85 22.65L27.9 23.73L26.77 23.37C26.72 23.35 26.67 23.34 26.61 23.34C26.45 23.34 26.31 23.4 26.19 23.52C26.08 23.64 26.02 23.77 26.02 23.92C26.02 24.24 26.14 24.42 26.38 24.47L27.49 24.78L26.78 25.78C26.7 25.88 26.66 26 26.66 26.12C26.66 26.29 26.73 26.42 26.88 26.52C27.03 26.63 27.18 26.68 27.33 26.68C27.5 26.68 27.63 26.61 27.71 26.49L28.41 25.41L29.09 26.48C29.18 26.61 29.31 26.68 29.5 26.68C29.66 26.68 29.81 26.62 29.94 26.51C30.08 26.4 30.14 26.27 30.14 26.1C30.14 25.97 30.12 25.87 30.06 25.79L29.31 24.72L30.4 24.47C30.64 24.42 30.76 24.26 30.76 24C30.76 23.84 30.71 23.68 30.6 23.55Z" />
			<path id="Layer" class="shp1" d="M35.71 25.12C35.65 25.03 35.58 24.99 35.48 24.99L35.2 24.99L35.2 24.51C35.2 24.4 35.15 24.32 35.05 24.26C34.95 24.21 34.83 24.18 34.69 24.18C34.56 24.18 34.44 24.21 34.34 24.26C34.24 24.32 34.19 24.4 34.19 24.51L34.19 24.99L33.63 24.99L34.78 22.69C34.8 22.64 34.81 22.6 34.81 22.57C34.81 22.46 34.75 22.37 34.64 22.3C34.52 22.22 34.41 22.19 34.31 22.19C34.12 22.19 33.98 22.27 33.89 22.44L32.39 25.35C32.36 25.41 32.34 25.48 32.34 25.54C32.34 25.64 32.37 25.72 32.43 25.78C32.5 25.84 32.58 25.87 32.68 25.87L34.19 25.87L34.19 26.59C34.19 26.7 34.24 26.78 34.34 26.83C34.44 26.89 34.56 26.92 34.69 26.92C34.83 26.92 34.95 26.89 35.05 26.83C35.15 26.78 35.2 26.7 35.2 26.59L35.2 25.87L35.48 25.87C35.56 25.87 35.63 25.82 35.69 25.73C35.76 25.64 35.79 25.54 35.79 25.43C35.79 25.31 35.76 25.21 35.71 25.12Z" />
		</g>
	</g>
</svg>