<svg width="48" height="48" viewBox="0 0 48 48" fill="none" xmlns="http://www.w3.org/2000/svg">
<rect width="48" height="48" rx="24" fill="#16272B"/>
<path d="M33.6508 23.1234C33.1652 23.1234 32.7742 23.5145 32.7742 24C32.7742 28.8383 28.8383 32.7742 24 32.7742C19.1617 32.7742 15.2258 28.8383 15.2258 24C15.2258 19.1617 19.1617 15.2258 24 15.2258C26.6426 15.2258 29.0918 16.3902 30.7504 18.3926H27.7211C27.2355 18.3926 26.8445 18.7836 26.8445 19.2691C26.8445 19.7547 27.2355 20.1457 27.7211 20.1457H32.6453C33.1309 20.1457 33.5219 19.7547 33.5219 19.2691V14.3492C33.5219 13.8637 33.1309 13.4727 32.6453 13.4727C32.1598 13.4727 31.7687 13.8637 31.7687 14.3492V16.8844C29.7879 14.723 26.9992 13.4727 24 13.4727C18.1949 13.4727 13.4727 18.1949 13.4727 24C13.4727 29.8051 18.1949 34.5273 24 34.5273C29.8051 34.5273 34.5273 29.8051 34.5273 24C34.5273 23.5145 34.1363 23.1234 33.6508 23.1234Z" fill="#62737E"/>
</svg>
