<svg width="36" height="36" viewBox="0 0 36 36" fill="none" xmlns="http://www.w3.org/2000/svg">
<g clip-path="url(#clip0)">
<path d="M35.2497 10.5C34.8357 10.5 34.4997 10.164 34.4997 9.75V3.75C34.4997 2.5095 33.4902 1.5 32.2497 1.5H26.2498C25.8358 1.5 25.4998 1.164 25.4998 0.75C25.4998 0.336 25.8358 0 26.2498 0H32.2497C34.3167 0 35.9997 1.6815 35.9997 3.75V9.75C35.9997 10.164 35.6637 10.5 35.2497 10.5Z" fill="#62737E"/>
<path d="M32.2497 36.0001H26.2498C25.8358 36.0001 25.4998 35.6641 25.4998 35.2501C25.4998 34.8361 25.8358 34.5001 26.2498 34.5001H32.2497C33.4902 34.5001 34.4997 33.4906 34.4997 32.2501V26.2501C34.4997 25.8361 34.8357 25.5001 35.2497 25.5001C35.6637 25.5001 35.9997 25.8361 35.9997 26.2501V32.2501C35.9997 34.3186 34.3167 36.0001 32.2497 36.0001Z" fill="#62737E"/>
<path d="M9.75 36.0001H3.75C1.683 36.0001 0 34.3186 0 32.2501V26.2501C0 25.8361 0.336 25.5001 0.75 25.5001C1.164 25.5001 1.5 25.8361 1.5 26.2501V32.2501C1.5 33.4906 2.5095 34.5001 3.75 34.5001H9.75C10.164 34.5001 10.5 34.8361 10.5 35.2501C10.5 35.6641 10.164 36.0001 9.75 36.0001Z" fill="#62737E"/>
<path d="M0.75 10.5C0.336 10.5 0 10.164 0 9.75V3.75C0 1.6815 1.683 0 3.75 0H9.75C10.164 0 10.5 0.336 10.5 0.75C10.5 1.164 10.164 1.5 9.75 1.5H3.75C2.5095 1.5 1.5 2.5095 1.5 3.75V9.75C1.5 10.164 1.164 10.5 0.75 10.5Z" fill="#62737E"/>
<path d="M26.2498 28.5H9.74976C8.50926 28.5 7.49976 27.4905 7.49976 26.25V21.7501C7.49976 21.3361 7.83576 21.0001 8.24976 21.0001C8.66376 21.0001 8.99976 21.3361 8.99976 21.7501V26.25C8.99976 26.6625 9.33576 27 9.74976 27H26.2498C26.6638 27 26.9998 26.6625 26.9998 26.25V21.7501C26.9998 21.3361 27.3358 21.0001 27.7498 21.0001C28.1638 21.0001 28.4998 21.3361 28.4998 21.7501V26.25C28.4998 27.4905 27.4903 28.5 26.2498 28.5Z" fill="#62737E"/>
<path d="M27.7498 16.5001C27.3358 16.5001 26.9998 16.1641 26.9998 15.7501V9.75006C26.9998 9.33756 26.6638 9.00006 26.2498 9.00006H9.74976C9.33576 9.00006 8.99976 9.33756 8.99976 9.75006V15.7501C8.99976 16.1641 8.66376 16.5001 8.24976 16.5001C7.83576 16.5001 7.49976 16.1641 7.49976 15.7501V9.75006C7.49976 8.50956 8.50926 7.50006 9.74976 7.50006H26.2498C27.4903 7.50006 28.4998 8.50956 28.4998 9.75006V15.7501C28.4998 16.1641 28.1638 16.5001 27.7498 16.5001Z" fill="#62737E"/>
<path d="M30.75 22.5H5.25C4.836 22.5 4.5 22.1641 4.5 21.7501C4.5 21.3361 4.836 21.0001 5.25 21.0001H30.75C31.164 21.0001 31.5 21.3361 31.5 21.7501C31.5 22.1641 31.164 22.5 30.75 22.5Z" fill="#62737E"/>
</g>
<defs>
<clipPath id="clip0">
<rect width="36" height="36" fill="white"/>
</clipPath>
</defs>
</svg>
