<svg width="19" height="18" viewBox="0 0 19 18"  xmlns="http://www.w3.org/2000/svg">
<path d="M17.7228 10.9725L16.0683 9.67876C16.0893 9.47925 16.1073 9.24602 16.1073 8.99926C16.1073 8.7525 16.09 8.51927 16.0683 8.31976L17.7243 7.02527C18.0318 6.78227 18.1158 6.35101 17.9201 5.99179L16.1996 3.015C16.0158 2.67901 15.613 2.5065 15.2043 2.65725L13.2521 3.44099C12.8778 3.17099 12.4855 2.943 12.0798 2.76075L11.7828 0.690012C11.734 0.297 11.392 0 10.9878 0H7.53783C7.13357 0 6.79234 0.297 6.74432 0.684L6.44658 2.76226C6.05357 2.93927 5.66734 3.16427 5.27658 3.4425L3.31908 2.65651C2.9523 2.51476 2.51355 2.67374 2.3313 3.00825L0.608569 5.98876C0.40533 6.33227 0.489319 6.77851 0.80358 7.02752L2.45807 8.32127C2.43181 8.57401 2.41908 8.79377 2.41908 9.00004C2.41908 9.2063 2.43184 9.42602 2.45807 9.67954L0.802069 10.974C0.494557 11.2178 0.411307 11.649 0.607057 12.0075L2.32757 14.9843C2.51133 15.3195 2.91032 15.4935 3.32281 15.342L5.27507 14.5583C5.64857 14.8275 6.04081 15.0555 6.44658 15.2385L6.74358 17.3085C6.79231 17.703 7.13357 18 7.53857 18H10.9886C11.3928 18 11.7348 17.703 11.7828 17.316L12.0805 15.2385C12.4736 15.0608 12.859 14.8365 13.2505 14.5575L15.208 15.3435C15.3025 15.3802 15.4008 15.399 15.5021 15.399C15.793 15.399 16.0608 15.24 16.1958 14.9925L17.9238 12C18.1158 11.649 18.0318 11.2178 17.7228 10.9725ZM9.26281 12C7.60832 12 6.26282 10.6545 6.26282 9C6.26282 7.34551 7.60832 6.00001 9.26281 6.00001C10.9173 6.00001 12.2628 7.34551 12.2628 9C12.2628 10.6545 10.9173 12 9.26281 12Z" />
</svg>
