<svg width="22" height="20" viewBox="0 0 22 20" fill="none" xmlns="http://www.w3.org/2000/svg">
<path d="M12.5581 0.231428C12.3305 0.00500442 11.9888 -0.0623947 11.6922 0.0609115C11.3956 0.184218 11.2021 0.474003 11.2021 0.795158V5.03788C6.9075 5.20871 4.75694 6.98904 4.42833 7.28504C2.26162 9.0632 0.782257 11.5411 0.244929 14.2918C-0.0237358 15.6208 -0.071878 16.9849 0.102987 18.3295L0.103608 18.3341C0.105161 18.3459 0.107025 18.3581 0.108888 18.3699L0.277852 19.3411C0.33469 19.6681 0.589067 19.9256 0.915503 19.9865C1.24225 20.0474 1.5721 19.8986 1.74293 19.6138L2.2492 18.7699C3.80465 16.1836 5.74308 14.4691 8.01135 13.6743C9.03445 13.3124 10.1184 13.1537 11.2021 13.2065V17.6008C11.2021 17.9226 11.3962 18.213 11.6938 18.3357C11.9916 18.4587 12.3339 18.3897 12.5609 18.1615L20.9635 9.71638C21.2731 9.40516 21.2719 8.90169 20.9607 8.59202L12.5581 0.231428ZM12.7926 15.6739V12.4912C12.7926 12.1011 12.5094 11.7685 12.1239 11.7064C11.4437 11.5967 9.62955 11.4225 7.48551 12.1738C5.19829 12.9751 3.21949 14.552 1.5898 16.8691C1.58514 16.1078 1.6572 15.3478 1.80505 14.6008C2.28833 12.1573 3.5158 10.1049 5.45298 8.50133C5.47006 8.48735 5.48621 8.47275 5.50205 8.45722C5.55765 8.40567 7.57714 6.58247 11.991 6.6154H11.9969C12.4361 6.6154 12.7923 6.25914 12.7926 5.81996V2.70811L19.2757 9.15855L12.7926 15.6739Z" fill="#62737E"/>
</svg>
