<svg version="1.2" baseProfile="tiny-ps" xmlns="http://www.w3.org/2000/svg" viewBox="0 0 179 30" width="179" height="30">
	<title>TNBLogo-svg</title>
	<defs>
		<clipPath clipPathUnits="userSpaceOnUse" id="cp1">
			<path d="M15 30C23.28 30 30 23.28 30 15C30 6.72 23.28 0 15 0C6.72 0 0 6.72 0 15C0 23.28 6.72 30 15 30Z" />
		</clipPath>
		<linearGradient id="grd1" gradientUnits="userSpaceOnUse"  x1="13.75" y1="10.417" x2="5.833" y2="18.333">
			<stop offset="0" stop-color="#b10910"  />
			<stop offset="1" stop-color="#b10910" stop-opacity="0" />
		</linearGradient>
	</defs>
	<style>
		tspan { white-space:pre }
		.shp0 { fill: #dc0d16 } 
		.shp1 { fill: #ffffff } 
		.shp2 { fill: url(#grd1) } 
		.txt3 { font-size: 21px;fill: #ffffff;font-weight: 400;font-family: "D-DINExp", "D-DIN Exp" } 
	</style>
	<path id="Layer" class="shp0" d="M15 30C23.28 30 30 23.28 30 15C30 6.72 23.28 0 15 0C6.72 0 0 6.72 0 15C0 23.28 6.72 30 15 30Z" />
	<path id="Layer" class="shp1" d="M14.17 5.83L9.17 5.83L18.33 15L9.17 24.17L14.17 24.17L23.33 15L14.17 5.83Z" />
	<g id="Clip-Path" clip-path="url(#cp1)">
		<g id="Layer">
			<path id="Layer" class="shp2" d="M18.33 15L9.17 24.17L4.58 28.75L-4.58 19.58L9.17 5.83L18.33 15Z" />
		</g>
	</g>
	<text id="TNBC Wallet " style="transform: matrix(1,0,0,1,38,2)" >
		<tspan x="0" y="21" class="txt3">TNBC Wallet</tspan>
	</text>
</svg>