<svg width="18" height="18" viewBox="0 0 18 18"  xmlns="http://www.w3.org/2000/svg">
<g clip-path="url(#clip0)">
<path d="M7.30547 6.1384H6.1758C6.16316 6.1384 6.15067 6.1373 6.13831 6.13647V7.34305H7.30547C7.46642 7.34305 7.61748 7.28043 7.73105 7.16672C7.84517 7.05273 7.90779 6.90154 7.90779 6.74072C7.90779 6.40852 7.63753 6.1384 7.30547 6.1384Z" />
<path d="M7.30547 3.87891H6.13831V5.08548C6.15067 5.08466 6.16316 5.08356 6.1758 5.08356H7.30547C7.63753 5.08356 7.90779 4.81343 7.90779 4.48123C7.90779 4.32042 7.84517 4.16922 7.73146 4.05565C7.61748 3.94153 7.46642 3.87891 7.30547 3.87891Z" />
<path d="M13.2308 0.816144C12.7046 0.289901 12.0047 0 11.2604 0H2.78779C2.04333 0 1.3435 0.289901 0.817258 0.816144C0.290877 1.34252 0.000976562 2.04235 0.000976562 2.78667V12.9539C0.000976562 13.1672 0.129516 13.3595 0.326583 13.441C0.391814 13.4681 0.460341 13.4813 0.528181 13.4813C0.665509 13.4813 0.800366 13.4277 0.901303 13.3268L3.00614 11.2218H11.2604C12.797 11.2218 14.0471 9.9717 14.0471 8.43513V2.78667C14.0471 2.04221 13.7572 1.34252 13.2308 0.816144V0.816144ZM8.96345 6.74064C8.96345 7.18352 8.79097 7.59963 8.47772 7.91246C8.16543 8.22516 7.74933 8.39764 7.30644 8.39764H7.26895V8.99996C7.26895 9.29124 7.03289 9.52731 6.74161 9.52731C6.45034 9.52731 6.21427 9.29124 6.21427 8.99996V8.39764H5.04711C4.75584 8.39764 4.51977 8.16144 4.51977 7.8703C4.51977 7.57903 4.75584 7.34296 5.04711 7.34296H5.08461V3.87885H5.04711C4.75584 3.87885 4.51977 3.64278 4.51977 3.3515C4.51977 3.06037 4.75584 2.82416 5.04711 2.82416H6.21427V2.22184C6.21427 1.93056 6.45034 1.6945 6.74161 1.6945C7.03289 1.6945 7.26895 1.93056 7.26895 2.22184V2.82416H7.30644C7.74933 2.82416 8.16543 2.99665 8.47827 3.30989C8.79097 3.62218 8.96345 4.03828 8.96345 4.48117C8.96345 4.91732 8.79412 5.31475 8.51768 5.61083C8.79412 5.90705 8.96345 6.30448 8.96345 6.74064Z" />
<path d="M15.2133 5.08362H15.1008V8.43513C15.1008 10.5533 13.3775 12.2765 11.2593 12.2765H3.95398V12.9539C3.95398 14.4905 5.20408 15.7406 6.74065 15.7406H14.9948L17.0998 17.8456C17.2006 17.9464 17.3355 18.0001 17.4727 18.0001C17.5407 18.0001 17.6092 17.9869 17.6743 17.9598C17.8714 17.8783 17.9999 17.686 17.9999 17.4727V7.87029C17.9999 6.33358 16.7498 5.08362 15.2133 5.08362V5.08362Z" />
</g>
<defs>
<clipPath id="clip0">
<rect width="18" height="18" />
</clipPath>
</defs>
</svg>
