<svg width="22" height="22" viewBox="0 0 22 22" fill="none" xmlns="http://www.w3.org/2000/svg">
<path d="M18.9384 1.51069C17.8296 0.403804 16.0339 0.403804 14.9251 1.51069L13.9205 2.52081L3.2264 13.2092L3.20367 13.2321C3.19816 13.2376 3.19816 13.2435 3.1923 13.2435C3.18094 13.2605 3.1639 13.2774 3.15271 13.2944C3.15271 13.3001 3.14685 13.3001 3.14685 13.3058C3.13549 13.3228 3.12998 13.3342 3.11844 13.3512C3.11294 13.3569 3.11294 13.3624 3.10725 13.3683C3.10157 13.3853 3.09589 13.3967 3.09003 13.4137C3.09003 13.4193 3.08453 13.4193 3.08453 13.4251L0.711835 20.5601C0.642233 20.7632 0.695145 20.9881 0.848022 21.1389C0.955443 21.2449 1.10033 21.3042 1.25108 21.3037C1.31269 21.3026 1.37377 21.293 1.43272 21.2753L8.56215 18.8969C8.56766 18.8969 8.56766 18.8969 8.57352 18.8914C8.59145 18.886 8.60867 18.8784 8.62448 18.8685C8.62892 18.8679 8.63282 18.866 8.63602 18.863C8.65289 18.8516 8.67561 18.8401 8.69266 18.8287C8.70953 18.8175 8.72675 18.8005 8.7438 18.7891C8.74948 18.7832 8.75498 18.7832 8.75498 18.7777C8.76084 18.7721 8.7722 18.7666 8.77789 18.755L20.4766 7.05633C21.5835 5.94748 21.5835 4.15185 20.4766 3.04319L18.9384 1.51069ZM8.38051 17.5629L4.42987 13.6124L14.3178 3.72447L18.2685 7.67493L8.38051 17.5629ZM3.87341 14.6625L7.32476 18.1137L2.14223 19.8392L3.87341 14.6625ZM19.6763 6.26158L19.0746 6.869L15.1238 2.91819L15.7314 2.31094C16.396 1.64688 17.4732 1.64688 18.138 2.31094L19.6818 3.8548C20.3414 4.52241 20.339 5.59716 19.6763 6.26158Z" fill="#62737E"/>
</svg>
