<svg width="22" height="22" viewBox="0 0 22 22" fill="none" xmlns="http://www.w3.org/2000/svg">
<g clip-path="url(#clip0)">
<path d="M11 2.74988C6.08336 2.74988 1.67766 5.97594 0.0367651 10.7778C-0.012255 10.9221 -0.012255 11.0779 0.0367651 11.2223C1.67766 16.0241 6.08336 19.2502 11 19.2502C15.9167 19.2502 20.3224 16.0241 21.9633 11.2223C22.0123 11.0779 22.0123 10.9221 21.9633 10.7778C20.3223 5.97594 15.9166 2.74988 11 2.74988ZM11 17.8751C6.74741 17.8751 2.92512 15.1217 1.41647 11C2.92512 6.8783 6.74737 4.12492 11 4.12492C15.2526 4.12492 19.0749 6.8783 20.5836 11C19.0749 15.1217 15.2526 17.8751 11 17.8751Z" fill="#62737E"/>
<path d="M11 6.87494C8.72533 6.87494 6.87494 8.72533 6.87494 11C6.87494 13.2747 8.72533 15.1251 11 15.1251C13.2747 15.1251 15.1251 13.2748 15.1251 11C15.1251 8.72529 13.2747 6.87494 11 6.87494ZM11 13.7501C9.48331 13.7501 8.24998 12.5167 8.24998 11C8.24998 9.48331 9.48335 8.24998 11 8.24998C12.5167 8.24998 13.7501 9.48335 13.7501 11C13.7501 12.5167 12.5167 13.7501 11 13.7501Z" fill="#62737E"/>
</g>
<defs>
<clipPath id="clip0">
<rect width="22" height="22" fill="white"/>
</clipPath>
</defs>
</svg>
